<?xml version="1.0" encoding="utf-8"?>
<!-- Generator: Adobe Illustrator 22.0.1, SVG Export Plug-In . SVG Version: 6.00 Build 0)  -->
<svg version="1.1" id="katman_1" xmlns="http://www.w3.org/2000/svg" xmlns:xlink="http://www.w3.org/1999/xlink" x="0px" y="0px"
	 viewBox="0 0 1479 416.9" style="enable-background:new 0 0 1479 416.9;" xml:space="preserve">
<style type="text/css">
	.st0{fill:#d0e7ff;}
</style>
<g>
	<path class="st0" d="M469.9,235.1c-0.4-19.3,4.2-39.5,17.1-54.3c7.5-8.6,18.1-15.2,28.9-18.6c1.5-0.5,3.4-0.9,5.4-1.1
		C500.5,82.4,397.2,15.9,283,2.8C148.6-12.5,14.8,56.8,3.8,153c-9,79.1,82.6,156.5,188.5,189.9c2.8,0.9,5.5,1.7,8.3,2.5
		c0.4,0.2,44.2,20.8,35.6,67.3c0,0,157.3-22.3,227.1-95.3h0c8.7-6.8,16.5-14.4,23.6-22.9C475.8,277.1,470.3,255.6,469.9,235.1
		 M412.7,322.9H361l-0.3-149.8l-55.3,126.8h-38.2l-55.3-126.8v149.8h-52.3V92.1h64.2l62.6,137.3l62.6-137.3h63.9V322.9z"/>
	<path class="st0" d="M618.2,249.8H485.8c5.9,27,26.7,43.8,54.3,43.8c19.1,0,36.6-7.2,49.4-20.4l20.1,21.4
		c-17.1,18.8-42.1,29.6-72.4,29.6c-54,0-89.6-35.9-89.6-88.6c0-53,36.6-88.9,88.6-89.2C597.8,146.4,622.8,186.6,618.2,249.8
		 M585.3,222.2c-1.3-28.3-20.1-45.4-48.7-45.4c-27.7,0-47.1,17.5-51.4,45.4H585.3z"/>
	<path class="st0" d="M825.3,214v109h-37.9v-98.5c0-26.3-15.8-42.5-42.1-42.5c-29,0.3-47.1,20.4-49.7,47.7v93.2h-37.9V147.8h37.9
		v33.6c12.5-24.4,34.9-34.9,64.5-34.9C800.9,146.4,825.3,172.1,825.3,214"/>
	<path class="st0" d="M975.1,311.7c-13.8,8.2-28.3,12.8-43.1,12.8c-26.3,0-49.1-15.1-49.1-51v-90.9h-24.7v-28.3h24.7v-48.1h37.5
		v48.1h51.7v28.3h-51.7v84c0,18.1,6.9,23.7,18.8,23.7c7.9,0,16.1-2.6,26.3-7.6L975.1,311.7z"/>
	<path class="st0" d="M1050.9,97.7c0,13.2-9.6,22.7-22.1,22.7c-12.5,0-22.1-9.5-22.1-22.7c0-13.5,9.5-23,22.1-23
		C1041.3,74.7,1050.9,84.2,1050.9,97.7 M1010,147.8h37.5v175.2H1010V147.8z"/>
	<path class="st0" d="M1269.8,235.4c0,52.7-37.2,88.9-91.2,88.9c-54.3,0-91.5-36.2-91.5-88.9c0-53,37.2-88.9,91.5-88.9
		C1232.6,146.4,1269.8,182.3,1269.8,235.4 M1125,235.7c0,33.9,22.1,57,53.7,57c31.3,0,53.3-23.1,53.3-57c0-33.6-22.1-56.6-53.3-56.6
		C1147,179,1125,202.1,1125,235.7"/>
	<path class="st0" d="M1477,214v109h-37.9v-98.5c0-26.3-15.8-42.5-42.2-42.5c-29,0.3-47.1,20.4-49.7,47.7v93.2h-37.9V147.8h37.9
		v33.6c12.5-24.4,34.9-34.9,64.5-34.9C1452.6,146.4,1477,172.1,1477,214"/>
</g>
</svg>
