<?xml version="1.0" encoding="iso-8859-1"?>
<!-- Generator: Adobe Illustrator 16.0.0, SVG Export Plug-In . SVG Version: 6.00 Build 0)  -->
<!DOCTYPE svg PUBLIC "-//W3C//DTD SVG 1.1//EN" "http://www.w3.org/Graphics/SVG/1.1/DTD/svg11.dtd">
<svg version="1.1" id="Capa_1" xmlns="http://www.w3.org/2000/svg" xmlns:xlink="http://www.w3.org/1999/xlink" x="0px" y="0px"
	 width="412.232px" height="412.231px" viewBox="0 0 412.232 412.231" style="enable-background:new 0 0 412.232 412.231;"
	 xml:space="preserve">
<g>
	<g>
		<path d="M138.553,137.994c0-18.063-14.698-32.764-32.764-32.764c-18.065,0-32.756,14.691-32.756,32.764
			c0,18.062,14.691,32.757,32.756,32.757C123.855,170.751,138.553,156.055,138.553,137.994z M105.784,154.624
			c-2.005,0-3.909-0.415-5.688-1.063c10.724-0.844,19.217-9.735,19.217-20.669c0-1.919-0.343-3.746-0.834-5.509
			c2.425,2.892,3.943,6.57,3.943,10.627C122.428,147.165,114.96,154.624,105.784,154.624z M103.188,132.887
			c0,2.59-2.118,4.708-4.715,4.708c-2.595,0-4.708-2.118-4.708-4.708c0-2.597,2.113-4.714,4.708-4.714
			C101.07,128.172,103.188,130.29,103.188,132.887z"/>
		<path d="M267.153,137.994c0,18.055,14.688,32.757,32.757,32.757c18.075,0,32.756-14.691,32.756-32.757
			c0-18.068-14.681-32.764-32.756-32.764C281.841,105.229,267.153,119.931,267.153,137.994z M287.889,132.887
			c0-2.597,2.114-4.714,4.713-4.714c2.595,0,4.704,2.118,4.704,4.714c0,2.59-2.109,4.708-4.704,4.708
			C289.999,137.595,287.889,135.477,287.889,132.887z M299.91,154.624c-2.005,0-3.905-0.415-5.689-1.063
			c10.729-0.844,19.212-9.735,19.212-20.669c0-1.919-0.346-3.746-0.828-5.514c2.424,2.892,3.937,6.57,3.937,10.626
			C316.541,147.165,309.085,154.624,299.91,154.624z"/>
		<path d="M404.179,161.821h-3.218c-3.088-36.439-26.826-67.03-59.456-80.059c-29.774-42.891-79.334-71.053-135.389-71.053
			c-56.048,0-105.616,28.155-135.391,71.048c-32.627,13.029-56.36,43.614-59.446,80.064H8.063c-4.449,0-8.063,3.614-8.063,8.062
			c0,4.452,3.615,8.063,8.063,8.063h3.216c2.483,29.331,18.299,54.916,41.412,70.575l22.84,146.17
			c0.612,3.927,3.995,6.83,7.966,6.83h60.462c4.452,0,8.063-3.612,8.063-8.063c0-29.831,24.271-54.094,54.093-54.094
			c29.824,0,54.092,24.276,54.092,54.094c0,4.451,3.612,8.063,8.063,8.063h60.462c3.963,0,7.349-2.898,7.954-6.83l22.845-146.17
			c23.118-15.664,38.931-41.244,41.408-70.575h3.228c4.436,0,8.063-3.611,8.063-8.063
			C412.232,165.435,408.625,161.821,404.179,161.821z M41.376,175.459c0,0.414,0.031,0.834,0.097,1.236l7.428,47.549
			c-13.53-14.151-21.897-33.281-21.897-54.36c0-24.176,10.965-45.819,28.155-60.284C46.311,129.785,41.376,152.044,41.376,175.459z
			 M105.784,248.676c-13.906,0-26.958-3.659-38.31-10.001l-9.977-63.833c0.118-29.378,8.842-56.744,23.723-79.778
			c7.74-2.545,15.979-3.971,24.564-3.971c43.449,0,78.793,35.341,78.793,78.791C184.583,213.326,149.233,248.676,105.784,248.676z
			 M248.34,285.71h-45.983c-4.448,0-8.062-3.617-8.062-8.063c0-4.451,3.614-8.063,8.062-8.063h45.983
			c4.451,0,8.063,3.612,8.063,8.063C256.404,282.093,252.796,285.71,248.34,285.71z M344.761,238.675
			c-11.345,6.357-24.41,10.001-38.31,10.001c-43.456,0-78.795-35.35-78.795-78.792c0-43.449,35.339-78.791,78.795-78.791
			c8.583,0,16.818,1.431,24.557,3.971c14.886,23.035,23.611,50.4,23.726,79.778L344.761,238.675z M363.343,224.244l7.424-47.549
			c0.067-0.401,0.099-0.822,0.099-1.236c0-23.41-4.934-45.675-13.779-65.859c17.197,14.459,28.169,36.108,28.169,60.284
			C385.245,190.963,376.873,210.093,363.343,224.244z"/>
	</g>
</g>
<g>
</g>
<g>
</g>
<g>
</g>
<g>
</g>
<g>
</g>
<g>
</g>
<g>
</g>
<g>
</g>
<g>
</g>
<g>
</g>
<g>
</g>
<g>
</g>
<g>
</g>
<g>
</g>
<g>
</g>
</svg>
