<svg id="Line" height="512" viewBox="0 0 64 64" width="512" xmlns="http://www.w3.org/2000/svg"><path d="m20 45h24a8 8 0 0 1 8 8v8a0 0 0 0 1 0 0h-40a0 0 0 0 1 0 0v-8a8 8 0 0 1 8-8z" fill="#5bcbfa"/><path d="m29 49h6l1 12h-8z" fill="#ec455a"/><path d="m23 45 2 8 5-4-1-4z" fill="#fff"/><path d="m41 45-2 8-5-4 1-4z" fill="#fff"/><path d="m38 45-6 6-6-6 1-12h10z" fill="#ffcbbe"/><path d="m48 13v10h-32v-12a8 8 0 0 1 8-8h8a7.99 7.99 0 0 1 5.32 2.03c.22-.01.45-.03.68-.03h2a8 8 0 0 1 8 8z" fill="#3e3d42"/><path d="m32 41a13 13 0 0 1 -13-13v-9a6 6 0 0 1 2.4-4.8 6 6 0 0 1 3.6-1.2h14a6 6 0 0 1 3.6 1.2 6 6 0 0 1 2.4 4.8v9a13 13 0 0 1 -13 13z" fill="#ffddce"/><path d="m17 19h2a0 0 0 0 1 0 0v7a0 0 0 0 1 0 0h-2a2 2 0 0 1 -2-2v-3a2 2 0 0 1 2-2z" fill="#ffcbbe"/><path d="m47 19h2a0 0 0 0 1 0 0v7a0 0 0 0 1 0 0h-2a2 2 0 0 1 -2-2v-3a2 2 0 0 1 2-2z" fill="#ffcbbe" transform="matrix(-1 0 0 -1 94 45)"/><path d="m44 44h-5.081l-.307-3.665a14.012 14.012 0 0 0 7.388-12.335v-1h1a3 3 0 0 0 3-3v-3a2.985 2.985 0 0 0 -1-2.22v-5.78a9.01 9.01 0 0 0 -9-9h-2c-.113 0-.226 0-.337.01a9.005 9.005 0 0 0 -5.663-2.01h-8a9.01 9.01 0 0 0 -9 9v7.78a2.985 2.985 0 0 0 -1 2.22v3a3 3 0 0 0 3 3h1v1a14.012 14.012 0 0 0 7.388 12.335l-.307 3.665h-5.081a9.01 9.01 0 0 0 -9 9v8a1 1 0 0 0 1 1h40a1 1 0 0 0 1-1v-8a9.01 9.01 0 0 0 -9-9zm-8.5 4.917 2.914-2.917h1.306l-1.312 5.246zm12.5-24.917a1 1 0 0 1 -1 1h-1v-5h1a1 1 0 0 1 1 1zm-31-13a7.008 7.008 0 0 1 7-7h8a7.01 7.01 0 0 1 4.656 1.778 1 1 0 0 0 .708.251l.233-.013c.132-.008.267-.016.4-.016h2a7.008 7.008 0 0 1 7 7v5h-1.078a6.983 6.983 0 0 0 -6.919-6h-14a6.985 6.985 0 0 0 -6.919 6h-1.081zm0 14a1 1 0 0 1 -1-1v-3a1 1 0 0 1 1-1h1v5zm3 3v-9a5 5 0 0 1 5-5h14a5 5 0 0 1 5 5v9a12 12 0 0 1 -24 0zm12 14a13.916 13.916 0 0 0 4.676-.82l.289 3.441-4.965 4.965-4.965-4.965.289-3.441a13.916 13.916 0 0 0 4.676.82zm-6.414 4 2.914 2.917-2.911 2.329-1.309-5.246zm-12.586 7a7.008 7.008 0 0 1 7-7h2.22l1.81 7.243a1 1 0 0 0 .651.7.975.975 0 0 0 .319.057 1 1 0 0 0 .625-.219l2.116-1.693-.661 7.912h-14.08zm16.087 7 .8-9.631.036-.029 1.367 1.367a1 1 0 0 0 1.414 0l1.367-1.367.036.029.8 9.631zm21.913 0h-14.08l-.661-7.912 2.116 1.693a1 1 0 0 0 .625.219.97.97 0 0 0 .319-.053 1 1 0 0 0 .651-.7l1.81-7.247h2.22a7.008 7.008 0 0 1 7 7z"/><path d="m27 21a1 1 0 0 0 -1 1v2a1 1 0 0 0 2 0v-2a1 1 0 0 0 -1-1z"/><path d="m37 25a1 1 0 0 0 1-1v-2a1 1 0 0 0 -2 0v2a1 1 0 0 0 1 1z"/></svg>