<svg id="Layer_1" enable-background="new 0 0 512 512" height="512" viewBox="0 0 512 512" width="512" xmlns="http://www.w3.org/2000/svg"><g><g><g><g id="XMLID_2247_"><g id="XMLID_2248_"><g id="XMLID_2249_"><g id="XMLID_2250_"><g id="XMLID_2251_"><g id="XMLID_2260_"><g id="XMLID_2274_"><g id="XMLID_2275_"><g id="XMLID_2276_"><g id="XMLID_2277_"><g id="XMLID_2278_"><g id="XMLID_2279_"><g id="XMLID_2280_"><g id="XMLID_2281_"><g id="XMLID_2282_"><circle cx="256" cy="256" fill="#4f4359" r="256"/></g></g></g></g></g></g></g></g></g></g></g></g></g></g></g></g></g><path d="m511.98 257.604-125.738-125.737-254.376 254.376 125.737 125.737c140.11-.862 253.515-114.266 254.377-254.376z" fill="#372a44"/><g><g><g><g id="XMLID_2231_"><g id="XMLID_2232_"><g id="XMLID_2233_"><g id="XMLID_2234_"><g id="XMLID_2235_"><g id="XMLID_2236_"><g id="XMLID_2237_"><g id="XMLID_2238_"><g id="XMLID_2239_"><g id="XMLID_2240_"><g id="XMLID_2241_"><g id="XMLID_2242_"><g id="XMLID_2243_"><g id="XMLID_2244_"><g id="XMLID_2245_"><circle cx="255.999" cy="256" fill="#fed940" r="179.923"/></g></g></g></g></g></g></g></g></g></g></g></g></g></g></g></g></g><g><g><g id="XMLID_2149_"><g id="XMLID_2150_"><g id="XMLID_2151_"><g id="XMLID_2152_"><g id="XMLID_2153_"><g id="XMLID_2154_"><g id="XMLID_2155_"><g id="XMLID_2171_"><g id="XMLID_2202_"><g id="XMLID_2203_"><g id="XMLID_2204_"><g id="XMLID_2205_"><g id="XMLID_2206_"><g id="XMLID_2207_"><g><path d="m435.923 256c0 99.367-80.557 179.924-179.924 179.924v-359.848c99.368 0 179.924 80.557 179.924 179.924z" fill="#ffc024"/></g></g></g></g></g></g></g></g></g></g></g></g></g></g></g></g></g><path d="m352.706 175.072-59.595 15.85c-7.059 1.877-12.954 6.07-17.021 11.587l-12.137.863c-5.295.376-10.609.376-15.904 0l-12.139-.863c-4.067-5.517-9.963-9.71-17.021-11.587l-59.595-15.85c-22.218-5.909-42.936 13.519-38.467 36.07l3.632 18.323c5.513 27.814 29.915 47.855 58.271 47.855 28.345 0 52.482-19.975 58.148-47.307h30.244c5.666 27.333 29.803 47.307 58.148 47.307 28.355 0 52.758-20.04 58.27-47.855l3.632-18.323c4.47-22.551-16.249-41.979-38.466-36.07z" fill="#4f4f4f"/><path d="m339.294 309.755c-42.691 25.409-93.063 34.707-142.011 26.215l-9.334-1.62 9.928 11.402c44.047 50.586 126.915 29.493 141.417-35.997z" fill="#7f6866"/><path d="m391.17 211.14-3.63 18.33c-2.76 13.91-10.23 25.87-20.57 34.35-10.33 8.49-23.52 13.5-37.7 13.5-28.35 0-52.48-19.97-58.15-47.31h-15.12v-26.35c2.65 0 5.3-.1 7.95-.29l12.14-.86c4.07-5.52 9.96-9.71 17.02-11.59l59.6-15.85c22.21-5.91 42.93 13.52 38.46 36.07z" fill="#3d3d3d"/><path d="m339.29 309.75v.01c-9.24 41.74-46.26 65.45-83.29 64.05v-36.08c29.22-3.26 57.64-12.71 83.29-27.98z" fill="#634c4c"/></g></g></svg>