<svg id="Layer_1" enable-background="new 0 0 256 256" height="512" viewBox="0 0 256 256" width="512" xmlns="http://www.w3.org/2000/svg"><path d="m197.999 169.611-13.809-.018-24.702-.032c.023-.397-.001-.79 0-1.193v-38.92h-42.653v38.866c0 .403-.022.796 0 1.193l-24.754-.032-13.809-.018c-14.918-.019-27.027 12.059-27.046 26.977l-.071 55.566h173.75l.071-55.343c.019-14.918-12.059-27.027-26.977-27.046z" fill="#7bac51"/><path d="m197.999 169.611-9.475-.012c14.918.019 26.996 12.128 26.977 27.046l-.072 55.355h9.475l.071-55.343c.02-14.918-12.058-27.027-26.976-27.046z" fill="#5d8e33"/><path d="m78.271 169.458 9.476.012c-14.918-.019-27.027 12.059-27.046 26.977l-.071 55.553h-9.476l.071-55.565c.02-14.918 12.128-26.996 27.046-26.977z" fill="#99ca6f"/><path d="m224.905 254h-173.751c-.531 0-1.04-.211-1.415-.587-.375-.375-.586-.885-.585-1.416l.071-55.565c.01-7.749 3.036-15.031 8.523-20.503 5.478-5.463 12.752-8.471 20.487-8.471h.038l36.561.047v-38.056c0-1.104.896-2 2-2h42.653c1.104 0 2 .896 2 2v38.115l36.514.047c7.749.01 15.03 3.037 20.503 8.523 5.473 5.487 8.48 12.776 8.471 20.525l-.07 55.343c-.001 1.104-.896 1.998-2 1.998zm-171.748-4h169.751l.067-53.345c.009-6.681-2.585-12.965-7.303-17.695s-10.995-7.34-17.677-7.348l-38.511-.05c-.55 0-1.076-.229-1.453-.629-.378-.401-.573-.939-.54-1.489.012-.206.006-.411.002-.617-.003-.153-.006-.307-.006-.462v-36.916h-38.653l-.006 37.305c-.004.214-.01.427.003.641.031.549-.166 1.087-.544 1.487-.378.399-.903.625-1.453.625-.001 0-.002 0-.003 0l-38.563-.049c-.01 0-.021 0-.032 0-6.669 0-12.94 2.593-17.663 7.303-4.729 4.718-7.339 10.996-7.348 17.676z" fill="#690589"/><path d="m62.871 189.815c-.222 0-.447-.037-.669-.116-1.041-.369-1.585-1.512-1.216-2.553 1.567-4.421 4.269-8.37 7.81-11.421.838-.721 2.101-.626 2.821.21.721.837.627 2.1-.21 2.821-3.016 2.597-5.315 5.96-6.651 9.727-.291.82-1.062 1.332-1.885 1.332z" fill="#690589"/><path d="m159.422 174.607.066-45.158h-42.653v45.127c0 11.76 9.534 21.294 21.294 21.294 11.748 0 21.276-9.515 21.293-21.263z" fill="#ff9f70"/><path d="m138.129 197.87c-12.845 0-23.294-10.449-23.294-23.293v-45.127c0-1.104.896-2 2-2h42.653c.531 0 1.04.211 1.415.587.375.375.586.885.585 1.416l-.065 45.158c-.02 12.825-10.469 23.259-23.294 23.259zm-19.294-66.421v43.127c0 10.639 8.655 19.293 19.294 19.293 10.623 0 19.278-8.643 19.294-19.266l.062-43.155h-38.65zm40.588 43.158h.01z" fill="#690589"/><path d="m178.449 28.162c9.855 0 17.619 8.398 16.847 18.222l-2.878 36.66h-54.285-.025-54.284l-2.878-36.66c-.771-9.824 6.993-18.222 16.847-18.222v-1.67c0-.35.011-.698.032-1.042.484-7.96 7.019-14.232 14.96-14.953l71.569-6.497z" fill="#fcc24c"/><path d="m178.906 28.186c5.864 3.106 9.724 9.625 9.17 16.926l-2.878 37.931h7.22l2.879-36.66c.759-9.669-6.757-17.939-16.391-18.197z" fill="#dea42e"/><path d="m97.336 28.186c-5.864 3.106-9.724 9.625-9.17 16.926l2.878 37.931h-7.221l-2.878-36.66c-.759-9.669 6.757-17.939 16.391-18.197z" fill="#fce06a"/><path d="m192.418 85.043h-108.594c-1.044 0-1.912-.803-1.994-1.843l-2.879-36.66c-.41-5.237 1.399-10.453 4.966-14.31 3.11-3.364 7.356-5.477 11.877-5.961.004-.314.016-.627.034-.938.533-8.774 7.746-16.006 16.776-16.826l71.568-6.497c.646-.058 1.274.198 1.696.687.422.49.58 1.152.427 1.78l-5.34 21.856c4.33.583 8.376 2.662 11.371 5.901 3.565 3.857 5.375 9.072 4.964 14.309l-2.879 36.66c-.081 1.04-.949 1.842-1.993 1.842zm-106.745-4h104.896l2.733-34.816c.329-4.188-1.061-8.195-3.913-11.28s-6.738-4.785-10.94-4.785c-.614 0-1.194-.282-1.573-.765s-.516-1.113-.369-1.709l5.239-21.442-68.78 6.244c-7.079.643-12.73 6.267-13.146 13.083-.018.303-.027.61-.027.92v1.67c0 1.104-.896 2-2 2-4.202 0-8.087 1.699-10.939 4.784-2.853 3.085-4.243 7.092-3.914 11.281z" fill="#690589"/><path d="m92.054 78.728h-3.288c-8.5 0-15.39 6.891-15.39 15.391s6.89 15.39 15.39 15.39h3.288z" fill="#ffbd8e"/><path d="m187.451 78.728h-3.288v30.781h3.288c8.5 0 15.39-6.89 15.39-15.39s-6.89-15.391-15.39-15.391z" fill="#e18152"/><path d="m138.108 156.966c-25.435 0-46.054-20.887-46.054-46.652v-32.298c0-25.765 20.619-46.652 46.054-46.652 25.435 0 46.054 20.887 46.054 46.652v32.298c.001 25.765-20.619 46.652-46.054 46.652z" fill="#ff9f70"/><path d="m138.108 31.363c-1.771 0-3.515.111-5.233.309 22.969 2.633 40.821 22.372 40.821 46.344v32.298c0 23.972-17.851 43.71-40.821 46.344 1.719.197 3.463.308 5.233.308 25.435 0 46.054-20.887 46.054-46.652v-32.298c.001-25.766-20.619-46.653-46.054-46.653z" fill="#e18152"/><path d="m138.108 31.363c1.771 0 3.515.111 5.234.309-22.97 2.633-40.821 22.372-40.821 46.344v32.298c0 23.972 17.851 43.71 40.821 46.344-1.719.197-3.463.308-5.234.308-25.435 0-46.054-20.887-46.054-46.652v-32.298c0-25.766 20.619-46.653 46.054-46.653z" fill="#ffbd8e"/><g fill="#690589"><path d="m138.108 158.966c-26.497 0-48.055-21.825-48.055-48.652v-32.298c0-26.827 21.558-48.652 48.055-48.652s48.054 21.825 48.054 48.652v32.298c0 26.827-21.557 48.652-48.054 48.652zm0-125.603c-24.292 0-44.055 20.031-44.055 44.652v32.298c0 24.622 19.763 44.652 44.055 44.652 24.291 0 44.054-20.031 44.054-44.652v-32.297c0-24.622-19.763-44.653-44.054-44.653z"/><path d="m92.054 111.509h-3.288c-9.589 0-17.391-7.801-17.391-17.39s7.802-17.391 17.391-17.391h3.288c1.104 0 2 .896 2 2v30.781c0 1.105-.896 2-2 2zm-3.288-30.78c-7.384 0-13.391 6.007-13.391 13.391 0 7.383 6.007 13.39 13.391 13.39h1.288v-26.781z"/><path d="m187.451 111.509h-3.289c-1.104 0-2-.896-2-2v-30.78c0-1.104.896-2 2-2h3.289c9.589 0 17.39 7.801 17.39 17.391 0 9.588-7.801 17.389-17.39 17.389zm-1.289-4h1.289c7.383 0 13.39-6.007 13.39-13.39 0-7.384-6.007-13.391-13.39-13.391h-1.289z"/><path d="m175.031 87.291c-.615 0-1.223-.283-1.614-.816-.653-.891-.462-2.143.429-2.796l9.187-6.743c.89-.655 2.143-.461 2.796.429.653.891.462 2.143-.429 2.796l-9.187 6.743c-.357.261-.772.387-1.182.387z"/><path d="m101.206 87.291c-.413 0-.831-.128-1.188-.393l-9.101-6.743c-.888-.658-1.074-1.91-.417-2.797s1.91-1.075 2.798-.417l9.101 6.743c.888.658 1.074 1.91.417 2.797-.393.53-.998.81-1.61.81z"/></g><path d="m164.714 103.124h-10.531c-5.697 0-10.315-4.618-10.315-10.315v-7.519c0-2.848 2.309-5.157 5.158-5.157h20.846c2.848 0 5.158 2.309 5.158 5.157v7.519c-.001 5.697-4.619 10.315-10.316 10.315z" fill="#ff4397"/><path d="m143.868 87.291h-11.499c-1.104 0-2-.896-2-2s.896-2 2-2h11.499c1.104 0 2 .896 2 2s-.895 2-2 2z" fill="#690589"/><path d="m122.054 103.124h-10.531c-5.697 0-10.315-4.618-10.315-10.315v-7.519c0-2.848 2.309-5.157 5.158-5.157h20.846c2.848 0 5.158 2.309 5.158 5.157v7.519c-.001 5.697-4.619 10.315-10.316 10.315z" fill="#ff4397"/><path d="m169.872 80.133h-6.189c2.848 0 5.158 2.309 5.158 5.157v7.519c0 5.697-4.618 10.315-10.315 10.315h6.189c5.697 0 10.315-4.618 10.315-10.315v-7.519c-.001-2.847-2.31-5.157-5.158-5.157z" fill="#e12579"/><path d="m106.366 80.133h6.189c-2.848 0-5.158 2.309-5.158 5.157v7.519c0 5.697 4.618 10.315 10.315 10.315h-6.189c-5.697 0-10.315-4.618-10.315-10.315v-7.519c0-2.847 2.309-5.157 5.158-5.157z" fill="#ff61b5"/><path d="m122.055 105.125h-10.531c-6.791 0-12.315-5.524-12.315-12.315v-7.519c0-3.947 3.211-7.158 7.157-7.158h20.847c3.946 0 7.157 3.211 7.157 7.158v7.519c-.001 6.79-5.525 12.315-12.315 12.315zm-15.69-22.992c-1.741 0-3.157 1.417-3.157 3.158v7.519c0 4.585 3.73 8.315 8.315 8.315h10.531c4.585 0 8.314-3.73 8.314-8.315v-7.519c0-1.741-1.416-3.158-3.157-3.158z" fill="#690589"/><path d="m164.714 105.125h-10.531c-6.79 0-12.314-5.524-12.314-12.315v-7.519c0-3.947 3.211-7.158 7.157-7.158h20.846c3.947 0 7.158 3.211 7.158 7.158v7.519c-.001 6.79-5.525 12.315-12.316 12.315zm-15.689-22.992c-1.741 0-3.157 1.417-3.157 3.158v7.519c0 4.585 3.729 8.315 8.314 8.315h10.531c4.585 0 8.315-3.73 8.315-8.315v-7.519c0-1.741-1.417-3.158-3.158-3.158z" fill="#690589"/><path d="m166.67 24.659h-28.605-28.605l-19.663 27.035 2.257 27.035 12.008-24.652c3.202-5.161 8.402-8.764 14.359-9.948 12.969-2.579 26.319-2.579 39.288 0 5.958 1.185 11.157 4.787 14.359 9.948l12.094 24.652 2.171-27.035z" fill="#fcc24c"/><path d="m92.055 80.729c-.149 0-.3-.017-.45-.051-.908-.209-1.551-1.017-1.551-1.949v-18c0-1.104.896-2 2-2s2 .896 2 2v9.327l8.21-16.855c.029-.061.062-.121.099-.178 3.48-5.611 9.192-9.568 15.669-10.855 13.293-2.644 26.774-2.645 40.067 0 6.477 1.288 12.188 5.244 15.67 10.855.035.056.067.114.097.174l8.297 16.915v-9.381c0-1.104.896-2 2-2s2 .896 2 2v18c0 .93-.642 1.738-1.548 1.948-.905.209-1.837-.231-2.248-1.067l-12.048-24.561c-2.904-4.63-7.637-7.893-12.998-8.959-12.778-2.54-25.733-2.54-38.51 0-5.361 1.066-10.093 4.329-12.997 8.957l-11.962 24.555c-.34.699-1.046 1.125-1.797 1.125z" fill="#690589"/><path d="m182.719 169.599v60.916c0 2.848-2.309 5.157-5.157 5.157h-12.917c-2.848 0-5.157-2.309-5.157-5.157v-60.916z" fill="#ff4397"/><path d="m182.941 156.966h-7.57v-7.246c0-2.848-2.309-5.158-5.158-5.158h-63.661c-2.848 0-5.158 2.309-5.158 5.158v7.246 12.633h73.976 12.727v-7.475c.001-2.849-2.308-5.158-5.156-5.158z" fill="#ff4397"/><path d="m109.647 149.72c0-2.848 2.309-5.158 5.158-5.158h-8.252c-2.848 0-5.158 2.309-5.158 5.158v7.246 12.633h8.252v-12.633z" fill="#ff61b5"/><path d="m182.941 156.966h-7.57v-7.246c0-2.848-2.309-5.158-5.157-5.158h-8.252c2.848 0 5.158 2.309 5.158 5.158v2.089c0 2.848 2.309 5.158 5.157 5.158h2.413c2.848 0 5.158 2.309 5.158 5.158v7.475h8.252v-7.475c-.002-2.85-2.311-5.159-5.159-5.159z" fill="#e12579"/><path d="m188.099 171.599h-86.704c-1.104 0-2-.896-2-2v-19.879c0-3.947 3.211-7.158 7.157-7.158h63.661c3.947 0 7.158 3.211 7.158 7.158v5.246h5.569c3.947 0 7.158 3.211 7.158 7.158v7.476c.001 1.104-.895 1.999-1.999 1.999zm-84.704-4h82.704v-5.476c0-1.741-1.417-3.158-3.158-3.158h-7.569c-1.104 0-2-.896-2-2v-7.246c0-1.741-1.417-3.158-3.158-3.158h-63.661c-1.741 0-3.157 1.417-3.157 3.158v17.88z" fill="#690589"/><path d="m175.499 169.599v60.916c0 2.848-2.309 5.158-5.157 5.158h7.22c2.848 0 5.158-2.309 5.158-5.158v-60.916z" fill="#e12579"/><path d="m177.562 237.673h-12.916c-3.946 0-7.157-3.211-7.157-7.158v-60.916c0-1.104.896-2 2-2h23.231c1.104 0 2 .896 2 2v60.916c0 3.947-3.211 7.158-7.158 7.158zm-16.074-66.074v58.916c0 1.741 1.416 3.158 3.157 3.158h12.916c1.741 0 3.158-1.417 3.158-3.158v-58.916z" fill="#690589"/><path d="m123.73 252h-72.561v-44.045h72.562c12.163 0 22.022 9.86 22.022 22.022 0 12.163-9.86 22.023-22.023 22.023z" fill="#ff4397"/><path d="m123.73 207.955h-9.902c12.163 0 22.022 9.86 22.022 22.023 0 12.162-9.86 22.022-22.022 22.022h9.902c12.163 0 22.022-9.86 22.022-22.022.001-12.163-9.859-22.023-22.022-22.023z" fill="#e12579"/><path d="m123.73 254h-72.561c-1.104 0-2-.896-2-2v-44.044c0-1.104.896-2 2-2h72.562c13.246 0 24.022 10.776 24.022 24.022s-10.776 24.022-24.023 24.022zm-70.561-4h70.562c11.04 0 20.022-8.982 20.022-20.022s-8.982-20.022-20.022-20.022h-70.562z" fill="#690589"/><path d="m71.313 252h-40.289v-18.991c0-6.115 4.957-11.072 11.072-11.072h18.144c6.115 0 11.072 4.957 11.072 11.072v18.991z" fill="#f4efed"/><ellipse cx="51.169" cy="207.955" fill="#f4efed" rx="13.982" ry="13.982" transform="matrix(.707 -.707 .707 .707 -132.06 97.09)"/><path d="m71.312 254h-40.288c-1.104 0-2-.896-2-2v-18.991c0-7.208 5.864-13.072 13.072-13.072h18.144c7.208 0 13.072 5.864 13.072 13.072v18.991c0 1.104-.895 2-2 2zm-38.288-4h36.288v-16.991c0-5.002-4.069-9.072-9.072-9.072h-18.143c-5.003 0-9.072 4.07-9.072 9.072v16.991z" fill="#690589"/><path d="m51.169 223.937c-8.812 0-15.981-7.169-15.981-15.981s7.169-15.981 15.981-15.981 15.981 7.169 15.981 15.981-7.169 15.981-15.981 15.981zm0-27.963c-6.606 0-11.981 5.375-11.981 11.981s5.375 11.981 11.981 11.981 11.981-5.375 11.981-11.981-5.375-11.981-11.981-11.981z" fill="#690589"/><path d="m87.796 222.674v14.608c0 .767-.644 1.362-1.386 1.362-.768 0-1.362-.594-1.362-1.362v-12.182l-.99.569c-.223.149-.47.198-.693.198-.47 0-.916-.248-1.163-.693-.421-.619-.198-1.485.445-1.857l3.045-1.807c.025-.025.074-.025.099-.049.05 0 .074-.05.124-.074.05 0 .099-.025.149-.025.025-.025.074-.025.099-.025.049-.025.123-.025.173-.025h.074.025.173c.025.025.074.025.099.025.074 0 .099.025.149.049.025 0 .074 0 .099.025.074.05.099.074.148.074.025.025.049.049.099.074.025.025.074.049.099.074.05.025.074.074.099.099s.05.049.074.099c.025.025.074.074.099.099l.025.05c0 .025.025.049.025.074.025.05.049.074.049.124.025.05.025.099.05.124 0 .05.025.099.025.123 0 .074 0 .124.049.174 0 .025 0 .05 0 .075z" fill="#690689"/><path d="m117.959 231.29h-3.516c-.743 0-1.362-.594-1.362-1.362 0-.743.619-1.362 1.362-1.362h3.516v-3.442c0-.792.619-1.411 1.411-1.411.768 0 1.411.619 1.411 1.411v3.442h3.516c.743 0 1.362.619 1.362 1.362 0 .767-.619 1.362-1.362 1.362h-3.516v3.442c0 .792-.644 1.411-1.411 1.411-.792 0-1.411-.619-1.411-1.411z" fill="#690689"/><path d="m107.281 222.674v14.608c0 .743-.644 1.362-1.387 1.362-.768 0-1.362-.619-1.362-1.362v-10.424l-3.566 4.952c-.272.371-.668.57-1.114.57h-.025-.025c-.445 0-.866-.198-1.139-.57l-3.54-4.952v10.424c0 .743-.62 1.362-1.387 1.362-.743 0-1.362-.619-1.362-1.362v-14.608c0-.743.619-1.362 1.362-1.362h.074c.396 0 .842.198 1.09.569l4.927 6.834 4.927-6.834c.273-.371.669-.569 1.115-.569h.025c.743.025 1.387.619 1.387 1.362z" fill="#690689"/></svg>