<?xml version="1.0" encoding="iso-8859-1"?>
<!-- Generator: Adobe Illustrator 16.0.0, SVG Export Plug-In . SVG Version: 6.00 Build 0)  -->
<!DOCTYPE svg PUBLIC "-//W3C//DTD SVG 1.1//EN" "http://www.w3.org/Graphics/SVG/1.1/DTD/svg11.dtd">
<svg version="1.1" id="Capa_1" xmlns="http://www.w3.org/2000/svg" xmlns:xlink="http://www.w3.org/1999/xlink" x="0px" y="0px"
	 width="135.247px" height="135.247px" viewBox="0 0 135.247 135.247" style="enable-background:new 0 0 135.247 135.247;"
	 xml:space="preserve">
<g>
	<path d="M93.327,61.894c3.227-4.925,5.01-10.737,5.01-16.761c0-6.452-2.004-12.448-5.422-17.395
		c6.064-0.971,9.804-2.289,9.804-3.736c0-1.861-6.133-3.499-15.446-4.472C87.23,8.73,81.989,0,67.619,0
		C53.248,0,48.006,8.73,47.961,19.53c-9.321,0.973-15.443,2.61-15.443,4.472c0,1.453,3.747,2.771,9.816,3.736
		c-3.417,4.951-5.426,10.937-5.426,17.395c0,6.02,1.787,11.831,5.012,16.761c-9.64,7.689-15.472,19.443-15.472,32.178
		c0,22.702,18.467,41.175,41.175,41.175c22.707,0,41.175-18.473,41.175-41.175C108.798,81.337,102.966,69.583,93.327,61.894z
		 M67.624,127.147c-18.267,0-33.075-14.808-33.075-33.075c0-13.669,8.295-25.401,20.126-30.44
		c-5.827-4.092-9.661-10.837-9.661-18.499c0-6.416,2.706-12.182,6.998-16.303c4.709,0.361,9.996,0.567,15.612,0.567
		s10.916-0.206,15.62-0.567c4.292,4.122,7.003,9.882,7.003,16.303c0,7.662-3.839,14.407-9.661,18.499
		c11.823,5.039,20.129,16.762,20.129,30.44C100.699,112.34,85.891,127.147,67.624,127.147z M61.208,41.763c0,1.49-1.21,2.7-2.7,2.7
		s-2.7-1.21-2.7-2.7s1.21-2.7,2.7-2.7S61.208,40.273,61.208,41.763z M79.436,41.763c0,1.49-1.202,2.7-2.7,2.7
		c-1.481,0-2.7-1.21-2.7-2.7s1.219-2.7,2.7-2.7C78.234,39.062,79.436,40.273,79.436,41.763z M73.446,51.801
		c0,3.22-2.605,5.822-5.822,5.822c-3.214,0-5.822-2.602-5.822-5.822c0-3.212,2.608-5.822,5.822-5.822
		C70.84,45.979,73.446,48.589,73.446,51.801z M70.318,79.987c0,1.487-1.21,2.7-2.699,2.7c-1.49,0-2.7-1.213-2.7-2.7
		s1.21-2.7,2.7-2.7C69.108,77.287,70.318,78.495,70.318,79.987z M70.318,91.272c0,1.498-1.21,2.7-2.699,2.7
		c-1.49,0-2.7-1.202-2.7-2.7c0-1.482,1.21-2.7,2.7-2.7C69.108,88.572,70.318,89.79,70.318,91.272z M70.318,102.584
		c0,1.481-1.21,2.7-2.699,2.7c-1.49,0-2.7-1.219-2.7-2.7c0-1.492,1.21-2.7,2.7-2.7C69.108,99.884,70.318,101.092,70.318,102.584z
		 M70.318,113.885c0,1.487-1.21,2.7-2.699,2.7c-1.49,0-2.7-1.213-2.7-2.7s1.21-2.7,2.7-2.7
		C69.108,111.185,70.318,112.397,70.318,113.885z"/>
</g>
<g>
</g>
<g>
</g>
<g>
</g>
<g>
</g>
<g>
</g>
<g>
</g>
<g>
</g>
<g>
</g>
<g>
</g>
<g>
</g>
<g>
</g>
<g>
</g>
<g>
</g>
<g>
</g>
<g>
</g>
</svg>
