<?xml version="1.0" encoding="iso-8859-1"?>
<!-- Generator: Adobe Illustrator 19.0.0, SVG Export Plug-In . SVG Version: 6.00 Build 0)  -->
<svg version="1.1" id="Capa_1" xmlns="http://www.w3.org/2000/svg" xmlns:xlink="http://www.w3.org/1999/xlink" x="0px" y="0px"
	 viewBox="0 0 480 480" style="enable-background:new 0 0 480 480;" xml:space="preserve">
<path style="fill:#1C9699;" d="M216.002,336h-72c-26.51,0-48,21.49-48,48v88h320v-88c0-26.51-21.49-48-48-48H216.002z"/>
<path style="fill:#494035;" d="M182.298,248L182.298,248c-1.871-2.895-3.57-5.897-5.088-8.992c-0.472-0.944-0.936-1.888-1.376-2.848
	c-0.544-1.216-1.072-2.4-1.6-3.68s-0.976-2.592-1.424-3.904c-0.352-1.008-0.736-2-1.048-3.032c-0.688-2.28-1.272-4.6-1.784-6.952
	c-0.184-0.856-0.32-1.712-0.48-2.576c-0.341-1.824-0.624-3.667-0.848-5.528c-0.096-0.8-0.2-1.648-0.272-2.48
	c-0.248-2.64-0.408-5.304-0.408-8V152h64.8c18.355,0.001,34.355-12.49,38.808-30.296L288.002,64l17.944,63.76
	c3.56,14.244,16.358,24.238,31.04,24.24h7.016v48c0,2.704-0.16,5.368-0.408,8c-0.072,0.8-0.176,1.656-0.272,2.48
	c-0.224,1.861-0.507,3.704-0.848,5.528c-0.16,0.864-0.296,1.72-0.48,2.576c-0.512,2.352-1.096,4.68-1.792,6.96
	c-0.304,1.024-0.688,2.008-1.032,3.016c-0.456,1.312-0.92,2.624-1.432,3.912s-1.024,2.464-1.6,3.68
	c-0.44,0.96-0.904,1.904-1.376,2.848c-1.507,3.097-3.196,6.102-5.056,9h14.296l0.368-0.664l21.96-39.528
	c1.424-2.56,2.757-5.163,4-7.808s2.387-5.256,3.432-7.832c6.752-16.698,10.229-34.54,10.24-52.552
	c0-65.848-48.224-123.736-113.696-130.816c-70.25-7.9-133.602,42.645-141.502,112.894c-0.534,4.75-0.802,9.526-0.802,14.306
	l13.656,64c1.259,2.64,2.592,5.243,4,7.808L163.554,240h-43.552c-13.255,0-24,10.745-24,24s10.745,24,24,24h-8
	c-26.509,0.228-47.813,21.903-47.585,48.411c0.213,24.696,19.13,45.2,43.729,47.397c0,0,11.856,48.192,43.856,48.192h16
	c26.512,0,56-21.488,56-48s-29.488-48-56-48h48v-56c-9.043-3.573-17.224-9.027-24-16L182.298,248z"/>
<path style="fill:#F2DBC0;" d="M296.002,336v-57.68l0,0c16.864-8.536,30.486-22.337,38.8-39.312
	c0.472-0.944,0.936-1.888,1.376-2.848c0.533-1.216,1.067-2.443,1.6-3.68c0.512-1.288,0.976-2.592,1.432-3.912
	c0.344-1.008,0.72-2,1.032-3.016c0.696-2.28,1.288-4.608,1.792-6.96c0.184-0.848,0.32-1.72,0.48-2.576
	c0.336-1.824,0.624-3.664,0.848-5.528c0.096-0.8,0.2-1.648,0.272-2.48c0.24-2.64,0.408-5.304,0.408-8V152h-7.016
	c-14.682-0.002-27.48-9.996-31.04-24.24L288.002,64l-16.424,57.704c-4.45,17.795-20.433,30.283-38.776,30.296h-64.8v48
	c0.007,33.053,18.551,63.31,48,78.32l0,0V328h-32v8c0,0,24,0,32,16c4.29,7.364,7.013,15.535,8,24h96c22.091,0,40-17.909,40-40
	H296.002z"/>
<path d="M368.002,328h-64v-44.992c11.723-6.811,21.882-16.013,29.816-27.008h10.184c2.904,0,5.581-1.574,6.992-4.112l20.576-37.04
	c13.385-24.126,20.416-51.258,20.432-78.848C391.958,60.845,330.997-0.044,255.842,0c-18.131,0.011-36.077,3.644-52.784,10.688
	c-60.52,25.6-92.272,96.552-72.28,161.528L149.17,232h-29.168c-17.673,0-32,14.327-32,32c0.02,6.817,2.236,13.446,6.32,18.904
	C65,292.643,49.126,324.309,58.865,353.63c6.745,20.306,24.481,34.986,45.689,37.818c3.748,27.769,27.427,48.504,55.448,48.552h16
	c30.928,0,56-25.072,56-56s-25.072-56-56-56h-24v16h24c22.091,0,40,17.909,40,40s-17.909,40-40,40h-16
	c-19.001-0.024-35.373-13.389-39.2-32h39.2v-16h-48c-22.091,0-40-17.909-40-40s17.909-40,40-40h48v-16h-40c-8.837,0-16-7.163-16-16
	s7.163-16,16-16h40c4.418,0.001,8.001-3.58,8.002-7.998c0-0.798-0.119-1.591-0.354-2.354l-0.152-0.472
	c8.177,19.264,22.392,35.349,40.504,45.832V336h16v-45.6c20.68,7.466,43.32,7.466,64,0V336c0,4.418,3.582,8,8,8h54.864
	c-3.637,14.085-16.317,23.945-30.864,24h-72v16h72c23.397-0.043,43.361-16.934,47.28-40h0.72c22.08,0.026,39.974,17.92,40,40v80
	h-304v-24h-16v32c0,4.418,3.582,8,8,8h320c4.418,0,8-3.582,8-8v-88C423.967,353.087,398.916,328.035,368.002,328z M146.066,167.512
	c-17.6-57.232,10.168-119.64,63.2-142.088c61.101-25.772,131.526,2.868,157.297,63.969c6.222,14.751,9.431,30.597,9.439,46.607
	c-0.011,24.87-6.342,49.329-18.4,71.08l-8.176,14.704c1.693-7.138,2.558-14.448,2.576-21.784v-40h8v-16h-23.016
	c-11.094-0.014-20.738-7.616-23.344-18.4l-17.944-63.76c-0.968-3.451-4.112-5.837-7.696-5.84l0,0
	c-3.575-0.001-6.716,2.37-7.696,5.808l-16.488,57.952c-3.558,14.235-16.343,24.227-31.016,24.24h-80.8v16h8v40
	c0.001,6.376,0.639,12.735,1.904,18.984L146.066,167.512z M176.002,200v-40h56.8c21.946,0.052,41.115-14.83,46.504-36.104
	l8.688-30.52l10.216,36.32c4.352,17.437,19.825,29.811,37.792,30.224V200c0,44.183-35.817,80-80,80S176.002,244.183,176.002,200z"/>
<path d="M216.002,178c-7.732,0-14,6.268-14,14s6.268,14,14,14s14-6.268,14-14C229.993,184.272,223.731,178.009,216.002,178z
	 M214.002,192c0-1.105,0.895-2,2-2s2,0.895,2,2C218.002,194.2,214.002,194.2,214.002,192z"/>
<path d="M296.002,178c-7.732,0-14,6.268-14,14s6.268,14,14,14s14-6.268,14-14C309.993,184.272,303.731,178.009,296.002,178z
	 M294.002,192c0-1.105,0.895-2,2-2s2,0.895,2,2C298.002,194.2,294.002,194.2,294.002,192z"/>
<path d="M256.002,250c-9.937-0.009-17.991-8.063-18-18h-12c0,16.569,13.431,30,30,30s30-13.431,30-30h-12
	C273.993,241.937,265.94,249.991,256.002,250z"/>
<g>
</g>
<g>
</g>
<g>
</g>
<g>
</g>
<g>
</g>
<g>
</g>
<g>
</g>
<g>
</g>
<g>
</g>
<g>
</g>
<g>
</g>
<g>
</g>
<g>
</g>
<g>
</g>
<g>
</g>
</svg>
